<?xml version="1.0" encoding="utf-8"?>
<!-- Generator: Adobe Illustrator 23.0.2, SVG Export Plug-In . SVG Version: 6.00 Build 0)  -->
<svg version="1.1" id="Layer_5" xmlns="http://www.w3.org/2000/svg" xmlns:xlink="http://www.w3.org/1999/xlink" x="0px" y="0px"
	 viewBox="0 0 869.5 380.5" style="enable-background:new 0 0 869.5 380.5;" xml:space="preserve">
<style type="text/css">
	.st0{fill:#1E85C7;}
	.st1{fill:#FFFFFF;}
	.st2{fill:#4BB048;}
</style>
<title>ais-logo-2015-crop</title>
<circle class="st0" cx="190.3" cy="190.3" r="190.3"/>
<path class="st1" d="M235.6,349.9H196c-3.7-12.1-5.8-24.6-6.4-37.2c-11.1,27.3-31.9,41-62.4,41c-18.4,0-33.1-5.4-44.2-16.1
	c-11.1-10.8-16.7-24.3-16.7-40.6c0-42.3,37.1-63.5,111.4-63.5c2.9,0,6.9,0.1,11.9,0.2v-13.8c0-19.1-13-28.6-39-28.6
	c-25.3,0-39.7,9.5-43,28.6l-35.4-5.3c2-15.3,9.9-28,23.7-37.9s33.9-14.9,60.2-14.9c14.2,0,25.8,1.2,34.8,3.6
	c8.5,2.1,16.3,6.2,22.8,12c6.2,5.7,10.5,11.8,12.9,18.4c2.4,6.6,3.6,17.8,3.6,33.6v83.2C230.3,325.3,232.1,337.8,235.6,349.9z
	 M189.6,256.2c-53.7,0-80.6,12.8-80.6,38.5c-0.1,7.4,2.8,14.5,8.2,19.6c5.4,5.4,13.6,8.1,24.5,8.1c15.8,0,27.7-5,35.8-15
	c7.9-9.6,12.2-21.7,12.1-34.2L189.6,256.2z"/>
<path class="st1" d="M293.2,349.9h-41.6V165.7h41.6V349.9z"/>
<path class="st2" d="M297.3,307.6l39-7.5c5.9,15,19.1,22.4,39.4,22.4c25.8,0,38.7-7.6,38.7-22.8c0-4.7-2.2-9.2-6-12
	c-4.2-3.2-9-5.4-14.2-6.4l-33.6-6.4c-37.2-7.2-55.8-25.4-55.8-54.5c0-16.3,5.9-30.1,17.7-41.5c11.8-11.4,29.4-17,52.7-17
	c38.9,0,62.7,14.3,71.3,42.9l-37,7.5c-3.9-13.9-15-20.8-33.2-20.8c-22.1,0-33.2,6.9-33.2,20.8c0,9.6,8.9,16.2,26.8,19.9l39.6,8.1
	c30.8,6.3,46.1,24,46.1,52.9c0,20.3-7.9,35.5-23.7,45.5c-15.8,10-34.6,15-56.4,15c-18.9,0-35.5-3.8-50-11.4S301.6,323.1,297.3,307.6
	z"/>
<ellipse transform="matrix(0.1602 -0.9871 0.9871 0.1602 93.381 385.3962)" class="st1" cx="273.2" cy="137.8" rx="21.6" ry="21.5"/>
</svg>
